<svg width="25" height="24" viewBox="0 0 25 24" fill="none" xmlns="http://www.w3.org/2000/svg">
<path d="M12.5 3C7.5275 3 3.5 7.13211 3.5 12.2284C3.5 16.3065 6.0785 19.7648 9.65375 20.9841C10.1037 21.0709 10.2687 20.7853 10.2687 20.5403C10.2687 20.3212 10.2613 19.7405 10.2575 18.9712C7.754 19.5277 7.226 17.7332 7.226 17.7332C6.8165 16.6681 6.22475 16.3832 6.22475 16.3832C5.4095 15.8111 6.28775 15.8229 6.28775 15.8229C7.1915 15.887 7.66625 16.7737 7.66625 16.7737C8.46875 18.1847 9.773 17.777 10.2875 17.5414C10.3685 16.9443 10.6003 16.5381 10.8575 16.3073C8.85875 16.0764 6.758 15.2829 6.758 11.7471C6.758 10.7399 7.10675 9.91659 7.68425 9.27095C7.583 9.03774 7.27925 8.0994 7.763 6.82846C7.763 6.82846 8.51675 6.58116 10.238 7.77462C10.958 7.56958 11.723 7.46785 12.488 7.46315C13.253 7.46785 14.018 7.56958 14.738 7.77462C16.448 6.58116 17.2017 6.82846 17.2017 6.82846C17.6855 8.0994 17.3818 9.03774 17.2917 9.27095C17.8655 9.91659 18.2142 10.7399 18.2142 11.7471C18.2142 15.2923 16.1105 16.0725 14.108 16.2995C14.423 16.5765 14.7155 17.1423 14.7155 18.0071C14.7155 19.242 14.7043 20.2344 14.7043 20.5341C14.7043 20.7759 14.8617 21.0647 15.323 20.9723C18.9237 19.7609 21.5 16.3002 21.5 12.2284C21.5 7.13211 17.4703 3 12.5 3Z" fill="white"/>
</svg>
