<svg width="25" height="24" viewBox="0 0 25 24" fill="none" xmlns="http://www.w3.org/2000/svg">
<path fill-rule="evenodd" clip-rule="evenodd" d="M8.10045 2.18164H16.899C19.8871 2.18164 22.3181 4.61264 22.318 7.60057V16.3991C22.318 19.387 19.8871 21.818 16.899 21.818H8.10045C5.11252 21.818 2.68164 19.3871 2.68164 16.3991V7.60057C2.68164 4.61264 5.11252 2.18164 8.10045 2.18164ZM16.8991 20.0758C18.9265 20.0758 20.5759 18.4265 20.5759 16.3991H20.5758V7.60057C20.5758 5.5733 18.9263 3.92387 16.899 3.92387H8.10045C6.07319 3.92387 4.42387 5.5733 4.42387 7.60057V16.3991C4.42387 18.4265 6.07319 20.0759 8.10045 20.0758H16.8991ZM7.35696 11.9999C7.35696 9.16406 9.66401 6.85697 12.4998 6.85697C15.3356 6.85697 17.6427 9.16406 17.6427 11.9999C17.6427 14.8357 15.3356 17.1427 12.4998 17.1427C9.66401 17.1427 7.35696 14.8357 7.35696 11.9999ZM9.1278 11.9998C9.1278 13.8591 10.6406 15.3717 12.4998 15.3717C14.3591 15.3717 15.8718 13.8591 15.8718 11.9998C15.8718 10.1404 14.3592 8.62772 12.4998 8.62772C10.6404 8.62772 9.1278 10.1404 9.1278 11.9998Z" fill="white"/>
<mask id="mask0_116_8375" style="mask-type:luminance" maskUnits="userSpaceOnUse" x="2" y="2" width="21" height="20">
<path fill-rule="evenodd" clip-rule="evenodd" d="M8.10045 2.18164H16.899C19.8871 2.18164 22.3181 4.61264 22.318 7.60057V16.3991C22.318 19.387 19.8871 21.818 16.899 21.818H8.10045C5.11252 21.818 2.68164 19.3871 2.68164 16.3991V7.60057C2.68164 4.61264 5.11252 2.18164 8.10045 2.18164ZM16.8991 20.0758C18.9265 20.0758 20.5759 18.4265 20.5759 16.3991H20.5758V7.60057C20.5758 5.5733 18.9263 3.92387 16.899 3.92387H8.10045C6.07319 3.92387 4.42387 5.5733 4.42387 7.60057V16.3991C4.42387 18.4265 6.07319 20.0759 8.10045 20.0758H16.8991ZM7.35696 11.9999C7.35696 9.16406 9.66401 6.85697 12.4998 6.85697C15.3356 6.85697 17.6427 9.16406 17.6427 11.9999C17.6427 14.8357 15.3356 17.1427 12.4998 17.1427C9.66401 17.1427 7.35696 14.8357 7.35696 11.9999ZM9.1278 11.9998C9.1278 13.8591 10.6406 15.3717 12.4998 15.3717C14.3591 15.3717 15.8718 13.8591 15.8718 11.9998C15.8718 10.1404 14.3592 8.62772 12.4998 8.62772C10.6404 8.62772 9.1278 10.1404 9.1278 11.9998Z" fill="white"/>
</mask>
<g mask="url(#mask0_116_8375)">
</g>
</svg>
