<svg width="94" height="32" viewBox="0 0 94 32" fill="none" xmlns="http://www.w3.org/2000/svg">
<path d="M9.464 24.352C7.65067 24.352 5.95467 24.128 4.376 23.68C2.79733 23.232 1.45333 22.6133 0.344 21.824L1.816 17.92C2.54133 18.4107 3.30933 18.8267 4.12 19.168C4.93067 19.5093 5.784 19.776 6.68 19.968C7.576 20.1387 8.51467 20.224 9.496 20.224C11.032 20.224 12.12 19.9893 12.76 19.52C13.4213 19.0507 13.752 18.4533 13.752 17.728C13.752 17.0667 13.528 16.5653 13.08 16.224C12.6533 15.8613 11.864 15.552 10.712 15.296L6.936 14.528C4.86667 14.1013 3.32 13.376 2.296 12.352C1.272 11.328 0.76 9.96267 0.76 8.256C0.76 6.80533 1.144 5.54667 1.912 4.48C2.68 3.41333 3.75733 2.58133 5.144 1.984C6.552 1.38667 8.19467 1.088 10.072 1.088C11.672 1.088 13.1653 1.312 14.552 1.76C15.9387 2.208 17.08 2.848 17.976 3.68L16.504 7.328C15.6293 6.624 14.648 6.10133 13.56 5.76C12.4933 5.39733 11.2987 5.216 9.976 5.216C8.58933 5.216 7.52267 5.46133 6.776 5.952C6.05067 6.44267 5.688 7.11467 5.688 7.968C5.688 8.608 5.912 9.13067 6.36 9.536C6.808 9.92 7.59733 10.2293 8.728 10.464L12.44 11.2C14.552 11.6267 16.12 12.3413 17.144 13.344C18.168 14.3467 18.68 15.68 18.68 17.344C18.68 18.752 18.296 19.9787 17.528 21.024C16.7813 22.0693 15.7147 22.8907 14.328 23.488C12.9627 24.064 11.3413 24.352 9.464 24.352ZM30.2065 24.352C27.3905 24.352 25.1932 23.5947 23.6145 22.08C22.0358 20.5653 21.2465 18.5067 21.2465 15.904C21.2465 14.2187 21.5772 12.7467 22.2385 11.488C22.9212 10.2293 23.8598 9.248 25.0545 8.544C26.2705 7.81867 27.6892 7.456 29.3105 7.456C30.9105 7.456 32.2438 7.79733 33.3105 8.48C34.3985 9.16267 35.2092 10.1227 35.7425 11.36C36.2972 12.576 36.5745 13.9947 36.5745 15.616V16.736H25.2145V14.336H33.0545L32.5105 14.784C32.5105 13.44 32.2332 12.4267 31.6785 11.744C31.1452 11.04 30.3665 10.688 29.3425 10.688C28.2118 10.688 27.3372 11.104 26.7185 11.936C26.1212 12.768 25.8225 13.9627 25.8225 15.52V16.032C25.8225 17.6107 26.2065 18.784 26.9745 19.552C27.7638 20.32 28.8945 20.704 30.3665 20.704C31.2412 20.704 32.0625 20.5973 32.8305 20.384C33.6198 20.1493 34.3665 19.7867 35.0705 19.296L36.4145 22.496C35.6038 23.0933 34.6652 23.552 33.5985 23.872C32.5532 24.192 31.4225 24.352 30.2065 24.352ZM39.6403 24V0.447998H44.4723V24H39.6403ZM48.4215 24V0.447998H53.2535V24H48.4215ZM57.2028 24V7.776H62.0348V24H57.2028ZM57.0108 5.12V0.608H62.1948V5.12H57.0108ZM67.2 24V11.392H64.128V7.776H68.576L67.2 9.024V6.688C67.2 4.576 67.744 2.98667 68.832 1.92C69.9413 0.853333 71.5947 0.32 73.792 0.32C74.2827 0.32 74.8053 0.351999 75.36 0.415998C75.936 0.479999 76.4373 0.607999 76.864 0.799999V4.512C76.5653 4.40533 76.224 4.33067 75.84 4.288C75.456 4.224 75.0827 4.192 74.72 4.192C74.2293 4.192 73.7707 4.27733 73.344 4.448C72.9387 4.61867 72.608 4.90667 72.352 5.312C72.1173 5.696 72 6.21867 72 6.88V8.576L71.328 7.776H76.096V11.392H72.032V24H67.2ZM77.7928 31.264L76.6728 27.488C77.6754 27.296 78.5181 27.072 79.2008 26.816C79.9048 26.56 80.4808 26.2187 80.9288 25.792C81.3768 25.3867 81.7394 24.8533 82.0168 24.192L82.8168 22.304L82.6888 24.16L75.6487 7.776H80.7368L85.3767 19.52H84.3848L89.0888 7.776H93.8888L86.5608 24.64C86.0274 25.856 85.4514 26.8587 84.8328 27.648C84.2354 28.4587 83.5848 29.0987 82.8808 29.568C82.1768 30.0373 81.3981 30.4 80.5448 30.656C79.7128 30.912 78.7954 31.1147 77.7928 31.264Z" fill="#022D62"/>
</svg>
