<svg width="25" height="24" viewBox="0 0 25 24" fill="none" xmlns="http://www.w3.org/2000/svg">
<path fill-rule="evenodd" clip-rule="evenodd" d="M22.3184 6.1461C21.6358 6.44856 20.9034 6.65368 20.1339 6.74525C20.9196 6.27474 21.5211 5.52844 21.8061 4.64189C21.0691 5.07762 20.2556 5.39401 19.3887 5.56553C18.6946 4.82501 17.7072 4.36377 16.612 4.36377C14.511 4.36377 12.8075 6.06731 12.8075 8.16719C12.8075 8.46501 12.8411 8.75589 12.906 9.03404C9.74459 8.87525 6.94128 7.36062 5.06507 5.05907C4.7371 5.61998 4.55053 6.27356 4.55053 6.97122C4.55053 8.29119 5.22268 9.45586 6.24249 10.1373C5.61901 10.1164 5.03262 9.94489 4.51925 9.6598V9.70732C4.51925 11.5499 5.8311 13.0877 7.57056 13.4377C7.25186 13.5235 6.9158 13.571 6.56813 13.571C6.32246 13.571 6.08489 13.5467 5.85195 13.5003C6.33634 15.0126 7.74092 16.1124 9.40507 16.1426C8.10365 17.1624 6.46268 17.7685 4.68034 17.7685C4.37325 17.7685 4.07077 17.7499 3.77295 17.7163C5.4568 18.7976 7.45586 19.428 9.6044 19.428C16.6028 19.428 20.4283 13.6313 20.4283 8.6041L20.4155 8.11159C21.163 7.57847 21.8096 6.90865 22.3184 6.1461Z" fill="white"/>
<mask id="mask0_116_8394" style="mask-type:luminance" maskUnits="userSpaceOnUse" x="3" y="4" width="20" height="16">
<path fill-rule="evenodd" clip-rule="evenodd" d="M22.3184 6.1461C21.6358 6.44856 20.9034 6.65368 20.1339 6.74525C20.9196 6.27474 21.5211 5.52844 21.8061 4.64189C21.0691 5.07762 20.2556 5.39401 19.3887 5.56553C18.6946 4.82501 17.7072 4.36377 16.612 4.36377C14.511 4.36377 12.8075 6.06731 12.8075 8.16719C12.8075 8.46501 12.8411 8.75589 12.906 9.03404C9.74459 8.87525 6.94128 7.36062 5.06507 5.05907C4.7371 5.61998 4.55053 6.27356 4.55053 6.97122C4.55053 8.29119 5.22268 9.45586 6.24249 10.1373C5.61901 10.1164 5.03262 9.94489 4.51925 9.6598V9.70732C4.51925 11.5499 5.8311 13.0877 7.57056 13.4377C7.25186 13.5235 6.9158 13.571 6.56813 13.571C6.32246 13.571 6.08489 13.5467 5.85195 13.5003C6.33634 15.0126 7.74092 16.1124 9.40507 16.1426C8.10365 17.1624 6.46268 17.7685 4.68034 17.7685C4.37325 17.7685 4.07077 17.7499 3.77295 17.7163C5.4568 18.7976 7.45586 19.428 9.6044 19.428C16.6028 19.428 20.4283 13.6313 20.4283 8.6041L20.4155 8.11159C21.163 7.57847 21.8096 6.90865 22.3184 6.1461Z" fill="white"/>
</mask>
<g mask="url(#mask0_116_8394)">
</g>
</svg>
